<svg width="118" height="83" viewBox="0 0 118 83" fill="none" xmlns="http://www.w3.org/2000/svg">
<g clip-path="url(#clip0_436_930)">
<path d="M59.9483 82.5253C63.4757 82.5253 66.3351 79.6658 66.3351 76.1385C66.3351 72.6112 63.4757 69.7517 59.9483 69.7517C56.421 69.7517 53.5616 72.6112 53.5616 76.1385C53.5616 79.6658 56.421 82.5253 59.9483 82.5253Z" fill="#133A40"/>
<path d="M98.1034 82.1664C101.676 81.0933 105.475 79.9743 108.309 77.4233C110.841 75.1438 112.55 71.6629 111.501 68.2442C110.455 64.8326 107.319 62.5577 104.081 61.4263C102.245 60.7845 100.324 60.4285 98.404 60.1488C96.3165 59.8448 94.2198 59.5957 92.124 59.356C83.6382 58.3855 75.1204 57.7926 66.5708 57.5773C62.3521 57.4711 58.1342 57.4736 53.9149 57.5349C50.1468 57.5896 46.1782 57.5882 42.6826 55.9867C39.9643 54.7413 37.4971 52.4755 36.7397 49.4981C35.8653 46.061 37.478 42.5609 39.7914 40.0717C41.0108 38.7596 42.436 37.6553 43.9062 36.6399C45.5012 35.5383 47.1517 34.5147 48.838 33.5592C52.1593 31.6783 55.6316 30.0775 59.2189 28.7735C60.9885 28.13 62.7844 27.5749 64.596 27.0627C66.1256 26.6303 67.66 26.1972 69.1383 25.608C71.9962 24.469 74.7144 22.5396 75.4411 19.3765C76.1298 16.3787 74.9686 13.1243 72.9329 10.8973C70.5777 8.32076 67.0266 7.1913 63.622 7.00856C59.7999 6.80339 56.0658 7.75998 52.4734 8.974C48.6417 10.2689 44.8927 11.7577 40.9802 12.8065C37.1003 13.8455 33.1454 14.5807 29.1513 15.0053C27.1961 15.2135 25.1817 15.4486 23.2149 15.2892C21.5665 15.1556 19.9265 14.6708 18.7116 13.501C17.67 12.4979 17.0494 11.1193 17.2628 9.6644C17.3015 9.40015 17.7029 9.51249 17.6644 9.77513C17.4047 11.5461 18.6085 13.178 20.092 14.0139C21.8064 14.98 23.8927 14.9814 25.8015 14.8709C29.9402 14.6209 34.051 14.0266 38.0911 13.0943C42.061 12.1875 45.8891 10.8913 49.7128 9.50669C53.3444 8.19163 57.0572 6.90813 60.9369 6.62329C64.3033 6.37614 67.8446 6.86658 70.7773 8.62585C73.3548 10.172 75.2501 12.7505 75.8541 15.7094C76.4442 18.6007 75.6269 21.5109 73.4382 23.5286C71.1721 25.6177 68.0649 26.5109 65.1692 27.3334C61.4965 28.3768 57.9025 29.5963 54.4238 31.1798C50.8976 32.7804 47.5159 34.6816 44.3159 36.8624C41.2272 38.9732 38.179 41.629 37.2021 45.3945C36.7471 47.1485 36.8311 49.0089 37.5925 50.6656C38.2695 52.1388 39.3845 53.3779 40.6834 54.3337C43.7824 56.6141 47.6884 57.0823 51.4318 57.1289C55.6362 57.1812 59.8407 57.0393 64.0464 57.1083C72.6176 57.249 81.1712 57.7707 89.7072 58.6735C91.8462 58.8999 93.9824 59.1501 96.1159 59.4242C98.0349 59.6708 99.9604 59.9158 101.847 60.3537C105.202 61.1324 108.466 62.6296 110.551 65.474C111.477 66.7069 112.05 68.1679 112.21 69.7012C112.356 71.3012 111.965 72.9042 111.241 74.3276C109.64 77.478 106.641 79.4818 103.456 80.7983C101.75 81.5034 99.9802 82.0376 98.2141 82.568C97.9569 82.6453 97.8469 82.2434 98.1034 82.1664Z" fill="#E0E0E0"/>
<path d="M117.165 82.7003H0.217697C0.173935 82.7001 0.132009 82.6827 0.101109 82.6517C0.0702094 82.6207 0.0528564 82.5787 0.0528564 82.535C0.0528564 82.4912 0.0702094 82.4492 0.101109 82.4182C0.132009 82.3872 0.173935 82.3698 0.217697 82.3696H117.165C117.208 82.3696 117.25 82.387 117.281 82.4181C117.312 82.4491 117.33 82.4911 117.33 82.535C117.33 82.5788 117.312 82.6208 117.281 82.6518C117.25 82.6829 117.208 82.7003 117.165 82.7003Z" fill="#35383F"/>
<path d="M79.6112 80.8769H77.9091L77.0992 74.3113H79.6116L79.6112 80.8769Z" fill="#FFB8B8"/>
<path d="M76.6932 80.3906H79.976V82.4576H74.6263C74.6263 82.1861 74.6797 81.9174 74.7836 81.6666C74.8875 81.4158 75.0397 81.188 75.2317 80.996C75.4236 80.8041 75.6515 80.6518 75.9022 80.548C76.153 80.4441 76.4218 80.3906 76.6932 80.3906Z" fill="#35383F"/>
<path d="M92.8013 80.8769H91.0992L90.2894 74.3113H92.8017L92.8013 80.8769Z" fill="#FFB8B8"/>
<path d="M89.8833 80.3906H93.1661V82.4576H87.8164C87.8164 82.1861 87.8699 81.9174 87.9737 81.6666C88.0776 81.4158 88.2299 81.188 88.4218 80.996C88.6137 80.8041 88.8416 80.6518 89.0924 80.548C89.3431 80.4441 89.6119 80.3906 89.8833 80.3906Z" fill="#35383F"/>
<path d="M17.6217 80.9403L19.3238 80.9401L20.1337 74.3745L17.6213 74.3746L17.6217 80.9403Z" fill="#FFB8B8"/>
<path d="M22.6064 82.5208L17.2566 82.521L17.2565 80.4541L20.5393 80.4539C21.0875 80.4539 21.6133 80.6716 22.0009 81.0592C22.3885 81.4468 22.6063 81.9726 22.6064 82.5208Z" fill="#35383F"/>
<path d="M11.5126 80.9403L13.2147 80.9401L14.0245 74.3745L11.5122 74.3746L11.5126 80.9403Z" fill="#FFB8B8"/>
<path d="M16.4979 82.5208L11.1481 82.521L11.148 80.4541L14.4308 80.4539C14.979 80.4539 15.5048 80.6716 15.8924 81.0592C16.28 81.4468 16.4978 81.9726 16.4979 82.5208Z" fill="#35383F"/>
<path d="M58.5412 80.9672C57.6339 80.5721 56.8309 79.9715 56.1955 79.2128C55.5601 78.4542 55.1097 77.5582 54.8798 76.5957C54.65 75.6331 54.647 74.6304 54.8711 73.6665C55.0952 72.7026 55.5402 71.8039 56.1711 71.0415C55.4397 71.5756 54.8302 72.2591 54.3831 73.0467C53.936 73.8343 53.6615 74.708 53.5779 75.6098C53.4943 76.5116 53.6034 77.4208 53.8981 78.2772C54.1928 79.1336 54.6662 79.9175 55.287 80.5769C55.9078 81.2364 56.6617 81.7562 57.4987 82.102C58.3358 82.4478 59.2368 82.6116 60.142 82.5825C61.0472 82.5534 61.9359 82.3322 62.749 81.9334C63.5621 81.5346 64.2812 80.9675 64.8584 80.2696C63.9581 80.9276 62.9012 81.3382 61.7928 81.4606C60.6844 81.583 59.5634 81.4129 58.5412 80.9672Z" fill="#35383F"/>
<path d="M81.0525 64.4755C82.8929 64.4755 84.3848 62.9836 84.3848 61.1433C84.3848 59.3029 82.8929 57.811 81.0525 57.811C79.2122 57.811 77.7203 59.3029 77.7203 61.1433C77.7203 62.9836 79.2122 64.4755 81.0525 64.4755Z" fill="#E0E0E0"/>
<path d="M108.96 62.9484C110.8 62.9484 112.292 61.4565 112.292 59.6162C112.292 57.7758 110.8 56.2839 108.96 56.2839C107.12 56.2839 105.628 57.7758 105.628 59.6162C105.628 61.4565 107.12 62.9484 108.96 62.9484Z" fill="#E0E0E0"/>
<path d="M13.0001 78.9211L11.3374 78.8337C11.2517 78.8292 11.1677 78.8077 11.0903 78.7705C11.013 78.7333 10.9438 78.6811 10.8867 78.6169C10.8296 78.5528 10.7859 78.478 10.7579 78.3968C10.73 78.3156 10.7185 78.2297 10.724 78.144L12.7112 56.1421L21.8625 58.6115L22.7442 58.371L19.987 77.8486C19.9635 77.9951 19.8907 78.1292 19.7807 78.2288C19.6707 78.3284 19.53 78.3874 19.3819 78.3962L17.5896 78.4798C17.4999 78.4847 17.4103 78.4711 17.3262 78.4396C17.2421 78.4082 17.1655 78.3596 17.1011 78.297C17.0368 78.2345 16.9861 78.1592 16.9523 78.0761C16.9186 77.9929 16.9024 77.9037 16.9049 77.8139L17.2296 66.1238C17.2311 66.0698 17.2123 66.0171 17.177 65.9762C17.1416 65.9353 17.0922 65.9091 17.0385 65.9029C16.9847 65.8966 16.9306 65.9107 16.8868 65.9423C16.8429 65.974 16.8125 66.0209 16.8015 66.0738L13.6697 78.4048C13.6401 78.5511 13.5607 78.6827 13.445 78.777C13.3293 78.8713 13.1845 78.9226 13.0353 78.9221C13.0236 78.9221 13.0119 78.9218 13.0001 78.9211Z" fill="#35383F"/>
<path d="M57.1715 57.5334C59.0118 57.5334 60.5037 56.0415 60.5037 54.2011C60.5037 52.3608 59.0118 50.8689 57.1715 50.8689C55.3311 50.8689 53.8392 52.3608 53.8392 54.2011C53.8392 56.0415 55.3311 57.5334 57.1715 57.5334Z" fill="#E0E0E0"/>
<path d="M34.9566 45.1764C36.7969 45.1764 38.2888 43.6845 38.2888 41.8442C38.2888 40.0039 36.7969 38.512 34.9566 38.512C33.1162 38.512 31.6243 40.0039 31.6243 41.8442C31.6243 43.6845 33.1162 45.1764 34.9566 45.1764Z" fill="#E0E0E0"/>
<path d="M55.9219 37.2624C57.7622 37.2624 59.2541 35.7705 59.2541 33.9301C59.2541 32.0898 57.7622 30.5979 55.9219 30.5979C54.0816 30.5979 52.5897 32.0898 52.5897 33.9301C52.5897 35.7705 54.0816 37.2624 55.9219 37.2624Z" fill="#E0E0E0"/>
<path d="M87.3082 37.9558C89.6087 37.9558 91.4735 36.091 91.4735 33.7905C91.4735 31.4901 89.6087 29.6252 87.3082 29.6252C85.0078 29.6252 83.1429 31.4901 83.1429 33.7905C83.1429 36.091 85.0078 37.9558 87.3082 37.9558Z" fill="#35383F"/>
<path d="M86.6752 37.9802C88.5586 37.9802 90.0854 36.4534 90.0854 34.57C90.0854 32.6867 88.5586 31.1599 86.6752 31.1599C84.7919 31.1599 83.2651 32.6867 83.2651 34.57C83.2651 36.4534 84.7919 37.9802 86.6752 37.9802Z" fill="#FFB8B8"/>
<path d="M72.4442 20.8788C74.2846 20.8788 75.7765 19.3869 75.7765 17.5466C75.7765 15.7062 74.2846 14.2144 72.4442 14.2144C70.6039 14.2144 69.112 15.7062 69.112 17.5466C69.112 19.3869 70.6039 20.8788 72.4442 20.8788Z" fill="#E0E0E0"/>
<path d="M40.6491 19.3515C42.4895 19.3515 43.9814 17.8596 43.9814 16.0193C43.9814 14.1789 42.4895 12.687 40.6491 12.687C38.8088 12.687 37.3169 14.1789 37.3169 16.0193C37.3169 17.8596 38.8088 19.3515 40.6491 19.3515Z" fill="#E0E0E0"/>
<path d="M59.2642 9.49413C49.2825 9.56464 41.1096 17.6762 40.9678 27.6571C40.9665 27.7493 40.9659 28.3972 40.966 29.2447C40.966 30.4872 41.4597 31.6789 42.3383 32.5576C43.2169 33.4362 44.4085 33.9299 45.6511 33.9301C46.267 33.9299 46.8769 33.8084 47.4459 33.5725C48.0149 33.3366 48.5318 32.9908 48.9671 32.555C49.4025 32.1193 49.7476 31.602 49.983 31.0327C50.2183 30.4635 50.3391 29.8534 50.3386 29.2375C50.3381 28.661 50.3378 28.262 50.3378 28.2375C50.3375 26.695 50.7387 25.1789 51.5021 23.8385C52.2654 22.498 53.3645 21.3794 54.6913 20.5925C56.0181 19.8057 57.5268 19.3778 59.0691 19.351C60.6114 19.3241 62.1342 19.6992 63.4875 20.4393C64.8409 21.1795 65.9783 22.2592 66.7878 23.5722C67.5974 24.8853 68.0512 26.3865 68.1045 27.9281C68.1579 29.4697 67.8091 30.9987 67.0923 32.3646C66.3756 33.7305 65.3156 34.8863 64.0167 35.7183L64.0183 35.7203C64.0183 35.7203 57.3499 40.0132 55.3169 45.9024L55.3186 45.9028C54.9611 47.1093 54.78 48.3611 54.7808 49.6194C54.7808 50.1366 54.8112 54.6623 54.87 58.3356C54.8906 59.603 55.4086 60.8116 56.3122 61.7005C57.2159 62.5894 58.4328 63.0875 59.7004 63.0872C60.3373 63.0871 60.968 62.9612 61.556 62.7165C62.1441 62.4718 62.678 62.1133 63.127 61.6615C63.5759 61.2097 63.9312 60.6736 64.1722 60.0841C64.4132 59.4945 64.5352 58.8631 64.5313 58.2262C64.5109 54.8621 64.4998 50.945 64.4998 50.6607C64.4998 47.0446 67.9883 43.4416 70.8538 41.092C74.1535 38.3863 76.5281 34.6992 77.4818 30.54C77.6928 29.6837 77.8092 28.8068 77.8288 27.9251C77.8288 25.4934 77.3476 23.0858 76.413 20.841C75.4784 18.5961 74.1088 16.5583 72.3832 14.8451C70.6575 13.1319 68.61 11.7771 66.3584 10.8587C64.1068 9.94033 61.6958 9.47657 59.2642 9.49413Z" fill="#133A40"/>
<path d="M88.7078 48.9815L90.2337 45.4757C90.6042 44.6533 90.7105 43.7361 90.5376 42.8508C90.3648 41.9655 89.9214 41.1556 89.2687 40.5329C89.1347 40.4004 88.9923 40.2766 88.8424 40.1622C88.0896 39.5732 87.1617 39.2522 86.2058 39.25C85.5631 39.2525 84.9285 39.3936 84.3454 39.6638C84.2953 39.686 84.2468 39.7096 84.1968 39.7332C84.101 39.779 84.0066 39.829 83.9149 39.8803C83.3172 40.2236 82.8085 40.7024 82.4299 41.2783C82.0512 41.8543 81.8132 42.5111 81.7351 43.1959L81.0617 48.8385C80.8923 49.2814 74.8498 65.2762 76.9631 77.4874C76.9856 77.6178 77.0491 77.7376 77.1446 77.8293C77.24 77.921 77.3622 77.9798 77.4934 77.997L79.6358 78.2886C79.7922 78.31 79.951 78.2713 80.08 78.1804C80.2091 78.0894 80.2989 77.9529 80.3314 77.7984L83.926 60.6638C83.9484 60.5573 84.0059 60.4615 84.0892 60.3915C84.1725 60.3215 84.2769 60.2815 84.3856 60.2778C84.4943 60.2741 84.6011 60.307 84.689 60.3712C84.7768 60.4354 84.8406 60.5272 84.8702 60.6319L89.9491 78.6509C89.9852 78.7819 90.0634 78.8973 90.1715 78.9796C90.2796 79.0618 90.4116 79.1064 90.5475 79.1064C90.588 79.1061 90.6284 79.1024 90.6683 79.0952L93.2854 78.5912C93.4376 78.5628 93.5736 78.4785 93.6669 78.355C93.7601 78.2315 93.8038 78.0775 93.7895 77.9234C93.4049 73.6345 91.3611 52.1513 88.7078 48.9815Z" fill="#35383F"/>
<path d="M86.4862 53.594C86.6888 53.5697 86.8837 53.5014 87.0571 53.3937C87.2305 53.286 87.3782 53.1416 87.4897 52.9707C87.6013 52.7997 87.674 52.6064 87.7027 52.4043C87.7315 52.2022 87.7156 51.9963 87.6561 51.8011L91.6667 48.88L89.2521 47.9758L85.8138 50.8883C85.4924 51.0099 85.2268 51.2452 85.0673 51.5496C84.9077 51.854 84.8654 52.2063 84.9482 52.5398C85.0311 52.8733 85.2335 53.1648 85.5169 53.3591C85.8004 53.5534 86.1452 53.637 86.4862 53.594Z" fill="#FFB8B8"/>
<path d="M61.0232 60.871C59.7556 60.8713 58.5387 60.3733 57.6351 59.4844C56.7314 58.5955 56.2134 57.3869 56.1929 56.1195C56.1341 52.4462 56.1036 47.9205 56.1036 47.4032C56.1028 46.145 56.284 44.8931 56.6415 43.6867L56.6398 43.6863C56.8509 43.0807 57.1058 42.4914 57.4026 41.9229C56.4915 43.1369 55.7665 44.48 55.2513 45.9078L55.253 45.9082C54.8955 47.1146 54.7144 48.3664 54.7152 49.6247C54.7152 50.142 54.7457 54.6677 54.8044 58.341C54.825 59.6084 55.343 60.8169 56.2466 61.7059C57.1503 62.5948 58.3672 63.0928 59.6348 63.0925C60.6799 63.0924 61.6969 62.7533 62.533 62.1263C63.3692 61.4992 63.9795 60.618 64.2724 59.6147C63.3842 60.4246 62.2252 60.8727 61.0232 60.871Z" fill="#35383F"/>
<path d="M89.6881 51.4957C89.6833 51.4957 89.6784 51.4957 89.6735 51.4956C89.5859 51.4935 89.4997 51.4729 89.4205 51.4354C89.3413 51.3978 89.2709 51.3441 89.2138 51.2776L87.5246 49.3069C87.4671 49.2398 87.4244 49.1612 87.3995 49.0764C87.3746 48.9916 87.3679 48.9025 87.38 48.8149C87.3921 48.7273 87.4226 48.6433 87.4696 48.5684C87.5165 48.4935 87.5788 48.4295 87.6524 48.3804L90.8154 46.2717L87.9499 42.8267C87.7832 42.5488 87.7221 42.2202 87.7777 41.901C87.8332 41.5817 88.0018 41.2931 88.2526 41.0879C88.5034 40.8827 88.8196 40.7745 89.1436 40.7832C89.4675 40.7919 89.7775 40.9168 90.0169 41.1352L93.4996 44.5386C93.7737 44.789 93.9829 45.1022 94.1094 45.4513C94.2358 45.8003 94.2756 46.1749 94.2254 46.5427C94.1753 46.9106 94.0366 47.2607 93.8213 47.5632C93.6059 47.8656 93.3205 48.1113 92.9893 48.2791L90.1428 51.2995C90.0844 51.3614 90.0139 51.4108 89.9357 51.4445C89.8575 51.4783 89.7733 51.4957 89.6881 51.4957Z" fill="#35383F"/>
<path d="M73.4226 37.4082C73.3989 37.611 73.42 37.8164 73.4843 38.0101C73.5487 38.2038 73.6547 38.3811 73.7949 38.5294C73.9352 38.6777 74.1062 38.7934 74.296 38.8685C74.4858 38.9435 74.6898 38.976 74.8935 38.9637L76.7997 43.5445L78.2416 41.4071L76.2104 37.3848C76.167 37.0439 76.0001 36.7308 75.7413 36.5047C75.4825 36.2786 75.1497 36.1554 74.8061 36.1583C74.4625 36.1611 74.1318 36.29 73.8768 36.5203C73.6219 36.7507 73.4602 37.0666 73.4226 37.4082Z" fill="#FFB8B8"/>
<path d="M79.9483 46.5983C79.7945 46.5981 79.6411 46.583 79.4903 46.5531C79.1255 46.4837 78.7834 46.3256 78.4941 46.0927C78.2048 45.8599 77.9773 45.5595 77.8315 45.218L75.1609 41.9617C75.1045 41.8928 75.0634 41.8127 75.0404 41.7267C75.0174 41.6407 75.0131 41.5507 75.0277 41.4629C75.0423 41.3751 75.0755 41.2914 75.1251 41.2174C75.1747 41.1435 75.2395 41.081 75.3152 41.0341L77.2152 39.858C77.2853 39.8146 77.3634 39.7854 77.4448 39.7723C77.5263 39.7592 77.6095 39.7624 77.6898 39.7816C77.77 39.8009 77.8456 39.8358 77.9123 39.8844C77.9789 39.933 78.0353 39.9944 78.0781 40.0649L79.9603 43.1658L83.5649 40.5019C83.8519 40.3514 84.1835 40.3092 84.499 40.383C84.8145 40.4568 85.093 40.6416 85.2835 40.9038C85.474 41.1659 85.5639 41.4878 85.5367 41.8107C85.5094 42.1337 85.3669 42.436 85.1352 42.6625L81.5375 45.9443C81.1147 46.3634 80.5435 46.5984 79.9483 46.5983Z" fill="#35383F"/>
<path d="M12.2497 44.7483L12.6246 52.8384L12.7602 55.7816C12.7656 55.9098 12.8091 56.0334 12.8851 56.1366C12.9612 56.2399 13.0663 56.3182 13.187 56.3614L21.9808 59.5469C22.0519 59.5733 22.1271 59.5865 22.2029 59.5858C22.2895 59.5863 22.3753 59.5692 22.4552 59.5357C22.5351 59.5022 22.6074 59.453 22.6679 59.391C22.7283 59.3289 22.7756 59.2553 22.807 59.1746C22.8383 59.0938 22.8531 59.0076 22.8504 58.921L22.4899 44.3748C22.4662 43.1814 22.0269 42.0336 21.2477 41.1293C20.4685 40.2251 19.3982 39.621 18.2213 39.4213C18.1363 39.4083 18.0498 39.3953 17.9632 39.3838C17.2335 39.2932 16.4927 39.3636 15.7931 39.5901C15.0935 39.8166 14.4521 40.1936 13.9138 40.6946C13.3565 41.2072 12.9186 41.836 12.6311 42.5364C12.3435 43.2369 12.2133 43.992 12.2497 44.7483Z" fill="#133A40"/>
<path d="M26.1816 57.9328C25.9736 57.8683 25.7836 57.756 25.6267 57.605C25.4698 57.454 25.3504 57.2684 25.278 57.063C25.2055 56.8576 25.1821 56.6381 25.2096 56.4221C25.2371 56.2061 25.3147 55.9994 25.4362 55.8187L22.4541 51.8534L25.0275 51.6941L27.4648 55.4841C27.7257 55.6858 27.9073 55.973 27.9776 56.2952C28.048 56.6174 28.0026 56.9541 27.8496 57.2463C27.6965 57.5384 27.4454 57.7673 27.1404 57.8929C26.8354 58.0184 26.496 58.0326 26.1816 57.9328Z" fill="#FFB8B8"/>
<path d="M24.0849 55.1011C24.0059 55.069 23.934 55.0216 23.8735 54.9616C23.8129 54.9016 23.7648 54.8301 23.7321 54.7514L19.2393 44.0474C19.1512 43.8378 19.1052 43.6129 19.104 43.3856C19.1028 43.1582 19.1464 42.9329 19.2324 42.7224C19.3183 42.5119 19.4449 42.3204 19.6049 42.1588C19.7648 41.9973 19.9551 41.8688 20.1647 41.7808C20.3744 41.6929 20.5993 41.647 20.8267 41.646C21.054 41.645 21.2793 41.6888 21.4898 41.7749C21.7002 41.861 21.8916 41.9877 22.053 42.1478C22.2144 42.3079 22.3427 42.4983 22.4306 42.708L26.9233 53.4122C26.9897 53.5709 26.9904 53.7494 26.9253 53.9087C26.8603 54.0679 26.7347 54.1949 26.5761 54.2616L24.5816 55.0987C24.5031 55.132 24.4187 55.1493 24.3335 55.1497C24.2482 55.1501 24.1637 55.1336 24.0849 55.1011Z" fill="#133A40"/>
<path d="M16.8309 54.7236L21.1461 46.4612C21.2293 46.3023 21.3721 46.1829 21.5433 46.1292C21.7144 46.0755 21.8999 46.0919 22.059 46.1747L28.3224 49.4459C28.4813 49.5291 28.6007 49.672 28.6544 49.8431C28.7081 50.0142 28.6917 50.1997 28.6089 50.3588L24.2937 58.6212C24.2105 58.7801 24.0677 58.8995 23.8965 58.9532C23.7254 59.0069 23.5399 58.9905 23.3808 58.9077L17.1174 55.6365C16.9585 55.5533 16.8391 55.4105 16.7854 55.2393C16.7317 55.0682 16.7481 54.8827 16.8309 54.7236Z" fill="#35383F"/>
<path d="M19.7248 50.9487C19.6481 50.7449 19.5248 50.5618 19.3648 50.4141C19.2048 50.2664 19.0124 50.1581 18.8031 50.098C18.5938 50.0378 18.3734 50.0274 18.1593 50.0676C17.9453 50.1078 17.7436 50.1974 17.5704 50.3294L13.4359 47.5867L13.4288 50.1649L17.3561 52.3742C17.5729 52.6228 17.8703 52.7871 18.1961 52.8383C18.5219 52.8895 18.8554 52.8243 19.138 52.6543C19.4206 52.4842 19.6343 52.2201 19.7416 51.9082C19.8489 51.5963 19.843 51.2566 19.7248 50.9487Z" fill="#FFB8B8"/>
<path d="M14.4974 51.5285L11.1184 48.852C10.7528 48.7292 10.4225 48.5196 10.1558 48.2411C9.88912 47.9626 9.69399 47.6236 9.58716 47.2531C9.48034 46.8826 9.46502 46.4917 9.54253 46.1139C9.62003 45.7362 9.78804 45.3829 10.0321 45.0844L13.1002 41.0636C13.3134 40.803 13.6132 40.6279 13.9449 40.5703C14.2766 40.5126 14.6179 40.5762 14.9065 40.7495C15.1952 40.9228 15.4118 41.1942 15.5168 41.514C15.6218 41.8339 15.6082 42.1808 15.4785 42.4915L13.051 46.4624L16.6184 48.1545C16.7014 48.1938 16.775 48.2503 16.8345 48.3202C16.894 48.3902 16.938 48.4719 16.9636 48.5601C16.9892 48.6483 16.9957 48.7409 16.9829 48.8318C16.97 48.9227 16.938 49.0098 16.8889 49.0874L15.4489 51.3664C15.4002 51.4433 15.3359 51.5092 15.2601 51.5597C15.1844 51.6102 15.0989 51.6442 15.0092 51.6595C15.0056 51.6602 15.002 51.6607 14.9985 51.6612C14.9103 51.6746 14.8203 51.6697 14.7341 51.6468C14.648 51.624 14.5674 51.5837 14.4974 51.5285Z" fill="#133A40"/>
<path d="M85.8082 44.2344C85.7811 44.2344 85.754 44.2327 85.7271 44.2293C85.6095 44.215 85.4984 44.1672 85.4071 44.0917C85.3158 44.0162 85.248 43.9161 85.2119 43.8032L83.9426 39.9115C83.9108 39.8131 83.9156 39.7066 83.9563 39.6115C83.997 39.5164 84.0707 39.4393 84.1639 39.3944L84.2051 39.3749C84.2424 39.3572 84.2794 39.3396 84.3172 39.3228C84.9091 39.0483 85.5534 38.9051 86.2058 38.9031C87.0529 38.9046 87.881 39.1535 88.5886 39.6191C88.6834 39.6822 88.7497 39.7801 88.7731 39.8916C88.7965 40.0031 88.7752 40.1194 88.7137 40.2153L86.3326 43.9457C86.2767 44.0343 86.1993 44.1072 86.1076 44.1577C86.0159 44.2082 85.9129 44.2346 85.8082 44.2344Z" fill="#133A40"/>
<path d="M17.9273 38.1398C19.8107 38.1398 21.3374 36.6131 21.3374 34.7297C21.3374 32.8463 19.8107 31.3196 17.9273 31.3196C16.0439 31.3196 14.5172 32.8463 14.5172 34.7297C14.5172 36.6131 16.0439 38.1398 17.9273 38.1398Z" fill="#FFB8B8"/>
<path d="M15.3505 37.0132C15.3359 36.9703 15.3313 36.9248 15.337 36.8799C15.3427 36.835 15.3586 36.792 15.3835 36.7543C15.4083 36.7165 15.4415 36.6849 15.4805 36.6619C15.5195 36.639 15.5632 36.6252 15.6083 36.6217C15.7006 36.6268 15.791 36.6505 15.874 36.6914C15.9569 36.7323 16.0307 36.7896 16.0909 36.8599C16.2143 37.0022 16.358 37.1255 16.5173 37.226C16.6823 37.3092 16.906 37.2973 17.0001 37.1388C17.0884 36.9899 17.0279 36.7906 16.9744 36.6176C16.8384 36.1777 16.7622 35.7214 16.7481 35.2611C16.7327 34.7474 16.8052 34.2112 17.0896 33.8105C17.4567 33.2933 18.1131 33.097 18.7343 33.1112C19.3555 33.1255 19.9666 33.3172 20.5819 33.4384C20.7943 33.4803 21.044 33.5017 21.1861 33.337C21.3371 33.162 21.2816 32.8787 21.2174 32.6423C21.0506 32.029 20.8738 31.3949 20.4863 30.8995C20.0675 30.3848 19.4691 30.0479 18.8118 29.9567C18.1807 29.8786 17.5401 29.9513 16.9426 30.169C15.9692 30.4758 15.1126 31.0725 14.4875 31.8793C13.8431 32.7373 13.5646 33.8156 13.713 34.8783C13.858 35.804 14.3484 36.6402 15.0856 37.2185L15.3505 37.0132Z" fill="#35383F"/>
<path d="M90.5922 31.9313C91.3449 31.9313 91.9552 31.3211 91.9552 30.5683C91.9552 29.8155 91.3449 29.2053 90.5922 29.2053C89.8394 29.2053 89.2292 29.8155 89.2292 30.5683C89.2292 31.3211 89.8394 31.9313 90.5922 31.9313Z" fill="#35383F"/>
<path d="M85.9198 29.0701C84.9624 29.0701 84.0442 29.4504 83.3672 30.1274C82.6902 30.8044 82.3099 31.7226 82.3099 32.68V34.2073H84.1883L85.0868 32.68L85.3563 34.2073H91.057L89.5297 32.68C89.5297 31.7226 89.1494 30.8044 88.4724 30.1274C87.7954 29.4504 86.8772 29.0701 85.9198 29.0701Z" fill="#35383F"/>
<path d="M91.2927 29.6346C91.4435 29.1633 91.7555 28.7602 92.174 28.4962C92.5925 28.2323 93.0907 28.1243 93.581 28.1912C94.4496 28.3365 95.1363 29.0347 95.5455 29.8145C95.9547 30.5943 96.1437 31.4671 96.4188 32.3036C96.6939 33.1402 97.084 33.9814 97.7785 34.5229C98.4729 35.0645 99.5386 35.2113 100.221 34.6543C100.143 35.2348 99.8843 35.7762 99.4818 36.2019C99.0793 36.6275 98.5532 36.9158 97.9779 37.0261C97.4026 37.1363 96.8072 37.0629 96.2759 36.8162C95.7445 36.5695 95.3042 36.162 95.0172 35.6513C94.6573 35.011 94.5644 34.2606 94.4577 33.5338C94.351 32.8071 94.2123 32.0552 93.7826 31.4595C93.353 30.8637 92.5486 30.4746 91.8661 30.746L91.2927 29.6346Z" fill="#35383F"/>
<path d="M59.5818 19.3667C61.0183 19.4353 62.4167 19.8515 63.6569 20.5796C64.8971 21.3077 65.9421 22.326 66.7021 23.5469C67.4621 24.7678 67.9144 26.1549 68.0203 27.5891C68.1261 29.0234 67.8822 30.4619 67.3097 31.7811C68.1379 30.8085 68.7466 29.6687 69.0943 28.4394C69.4421 27.2102 69.5207 25.9205 69.3248 24.6581C69.1289 23.3957 68.6632 22.1904 67.9592 21.1244C67.2553 20.0584 66.3298 19.1567 65.2458 18.4807C64.1618 17.8048 62.9448 17.3705 61.6778 17.2076C60.4107 17.0446 59.1235 17.1568 57.9037 17.5365C56.6839 17.9161 55.5604 18.5543 54.6096 19.4075C53.6589 20.2607 52.9033 21.3089 52.3943 22.4807C53.2739 21.4459 54.3795 20.627 55.6256 20.0871C56.8718 19.5472 58.2253 19.3007 59.5818 19.3667Z" fill="#35383F"/>
<path d="M46.9739 31.7139C45.7314 31.7138 44.5397 31.2201 43.6611 30.3414C42.7825 29.4628 42.2889 28.2711 42.2888 27.0285C42.2887 26.1811 42.2893 25.5331 42.2906 25.441C42.3301 22.5382 43.0611 19.6867 44.4231 17.123C42.1854 20.1863 40.9551 23.8693 40.9022 27.6625C40.9009 27.7546 40.9003 28.4026 40.9004 29.25C40.9004 30.4926 41.3941 31.6843 42.2727 32.5629C43.1513 33.4416 44.3429 33.9353 45.5855 33.9354C46.6066 33.935 47.5996 33.6014 48.4137 32.9852C49.2279 32.3689 49.8186 31.5038 50.0962 30.5212C49.2383 31.2905 48.1262 31.7153 46.9739 31.7139Z" fill="#35383F"/>
<path d="M17.5317 13.0341C19.372 13.0341 20.8639 11.5422 20.8639 9.70187C20.8639 7.86152 19.372 6.36963 17.5317 6.36963C15.6914 6.36963 14.1995 7.86152 14.1995 9.70187C14.1995 11.5422 15.6914 13.0341 17.5317 13.0341Z" fill="#E0E0E0"/>
<path d="M60.226 6.71672C62.0664 6.71672 63.5583 5.22483 63.5583 3.38448C63.5583 1.54414 62.0664 0.0522461 60.226 0.0522461C58.3857 0.0522461 56.8938 1.54414 56.8938 3.38448C56.8938 5.22483 58.3857 6.71672 60.226 6.71672Z" fill="#E0E0E0"/>
</g>
<defs>
<clipPath id="clip0_436_930">
<rect width="117.277" height="82.6481" fill="white" transform="translate(0.0523682 0.0522461)"/>
</clipPath>
</defs>
</svg>
