<svg width="48" height="52" viewBox="0 0 48 52" fill="none" xmlns="http://www.w3.org/2000/svg">
<path d="M27.1626 35.6937L28.7289 40.8871C28.1243 41.3543 27.3412 41.7252 26.3794 42C25.4452 42.2748 24.4834 42.4122 23.4942 42.4122C21.7081 42.4122 20.1418 42.055 18.7954 41.3405C17.4489 40.5986 16.336 39.5269 15.4567 38.1255L11.9532 32.5199C11.541 31.8604 11.1288 31.407 10.7166 31.1597C10.3319 30.8849 9.87855 30.7338 9.35646 30.7063V42H2.7616V12.7353H12.3654C16.4047 12.7353 19.4274 13.5459 21.4333 15.1672C23.4667 16.7884 24.4834 19.0279 24.4834 21.8857C24.4834 24.1389 23.7827 25.98 22.3813 27.4089C21.0074 28.8378 19.235 29.772 17.0642 30.2117C17.971 30.6513 18.7679 31.3795 19.4548 32.3962L20.8562 34.5396C21.7356 35.8585 22.8897 36.518 24.3185 36.518C24.8406 36.518 25.3353 36.4631 25.8024 36.3532C26.2695 36.2158 26.7229 35.9959 27.1626 35.6937ZM11.9944 18.2173H9.35646V25.4716H11.9532C14.0141 25.4716 15.4979 25.1831 16.4047 24.6061C17.3115 24.0015 17.7649 23.0673 17.7649 21.8032C17.7649 20.5392 17.2566 19.6324 16.2398 19.0829C15.2231 18.5058 13.808 18.2173 11.9944 18.2173ZM38.4772 42.4122C35.8942 42.4122 33.8471 41.6977 32.3357 40.2688C30.8244 38.8125 30.0825 36.9027 30.11 34.5396L30.2748 26.2548H26.8125V21.0201H30.3573L30.3985 16.7334H36.6636L36.6224 21.0201H43.176V26.2548H36.54L36.4163 33.8389C36.4163 34.8281 36.6774 35.5975 37.1995 36.1471C37.7215 36.6966 38.5047 36.9714 39.5489 36.9714C40.1534 36.9714 40.7305 36.9027 41.28 36.7653C41.8571 36.6005 42.4479 36.2982 43.0524 35.8585L44.866 40.681C43.4646 41.8351 41.335 42.4122 38.4772 42.4122Z" fill="white"/>
<path d="M33.1809 27.6929C46.503 28.3885 47.7654 20.1816 47.3469 18.0915C34.815 17.3547 34.2549 23.7678 33.1809 27.6929Z" fill="#69D19F"/>
</svg>
