<svg width="24" height="24" viewBox="0 0 24 24" fill="none" xmlns="http://www.w3.org/2000/svg">
<path d="M1.40773 15.8253C1.72875 15.8254 2.0386 15.9432 2.2785 16.1566C2.5184 16.3699 2.67167 16.6638 2.70923 16.9827L2.71841 17.136V21.068H7.96112C8.29519 21.0684 8.61651 21.1963 8.85942 21.4257C9.10234 21.655 9.24852 21.9684 9.2681 22.3019C9.28767 22.6354 9.17917 22.9638 8.96476 23.22C8.75034 23.4761 8.4462 23.6408 8.11447 23.6802L7.96112 23.6894H2.71841C2.05707 23.6896 1.42009 23.4398 0.935163 22.9902C0.450236 22.5405 0.1532 21.9241 0.103599 21.2646L0.0970459 21.068V17.136C0.0970459 16.7884 0.235135 16.455 0.480935 16.2092C0.726735 15.9634 1.06011 15.8253 1.40773 15.8253ZM22.3786 15.8253C22.7262 15.8253 23.0596 15.9634 23.3054 16.2092C23.5512 16.455 23.6893 16.7884 23.6893 17.136V21.068C23.6893 21.7633 23.4131 22.43 22.9215 22.9216C22.4299 23.4132 21.7631 23.6894 21.0679 23.6894H15.8252C15.4776 23.6894 15.1442 23.5513 14.8984 23.3055C14.6526 23.0597 14.5145 22.7263 14.5145 22.3787C14.5145 22.0311 14.6526 21.6977 14.8984 21.4519C15.1442 21.2061 15.4776 21.068 15.8252 21.068H21.0679V17.136C21.0679 16.7884 21.206 16.455 21.4518 16.2092C21.6976 15.9634 22.031 15.8253 22.3786 15.8253ZM22.3786 10.5826C22.7127 10.583 23.034 10.7109 23.2769 10.9402C23.5198 11.1696 23.666 11.483 23.6856 11.8165C23.7052 12.15 23.5966 12.4783 23.3822 12.7345C23.1678 12.9907 22.8637 13.1553 22.5319 13.1948L22.3786 13.204H1.40773C1.07366 13.2036 0.752344 13.0757 0.509427 12.8463C0.266511 12.617 0.12033 12.3036 0.100752 11.9701C0.0811746 11.6366 0.189678 11.3082 0.404092 11.052C0.618506 10.7959 0.922648 10.6312 1.25438 10.5918L1.40773 10.5826H22.3786ZM7.96112 0.097168C8.30874 0.097168 8.64211 0.235257 8.88791 0.481057C9.13371 0.726857 9.2718 1.06023 9.2718 1.40785C9.2718 1.75546 9.13371 2.08884 8.88791 2.33464C8.64211 2.58044 8.30874 2.71853 7.96112 2.71853H2.71841V6.65057C2.71841 6.99818 2.58032 7.33156 2.33452 7.57736C2.08872 7.82316 1.75534 7.96125 1.40773 7.96125C1.06011 7.96125 0.726735 7.82316 0.480935 7.57736C0.235135 7.33156 0.0970459 6.99818 0.0970459 6.65057V2.71853C0.0970459 2.0233 0.373224 1.35655 0.864824 0.864946C1.35642 0.373346 2.02318 0.097168 2.71841 0.097168H7.96112ZM21.0679 0.097168C21.7631 0.097168 22.4299 0.373346 22.9215 0.864946C23.4131 1.35655 23.6893 2.0233 23.6893 2.71853V6.65057C23.6893 6.99818 23.5512 7.33156 23.3054 7.57736C23.0596 7.82316 22.7262 7.96125 22.3786 7.96125C22.031 7.96125 21.6976 7.82316 21.4518 7.57736C21.206 7.33156 21.0679 6.99818 21.0679 6.65057V2.71853H15.8252C15.4776 2.71853 15.1442 2.58044 14.8984 2.33464C14.6526 2.08884 14.5145 1.75546 14.5145 1.40785C14.5145 1.06023 14.6526 0.726857 14.8984 0.481057C15.1442 0.235257 15.4776 0.097168 15.8252 0.097168H21.0679Z" fill="white"/>
</svg>
